<svg version="1.1" xmlns="http://www.w3.org/2000/svg" viewBox="0 0 1072 380.9207792140544" width="1072" height="380.9207792140544">
  <!-- svg-source:excalidraw -->
  
  <defs>
    <style>
      @font-face {
        font-family: "Virgil";
        src: url("https://excalidraw.com/Virgil.woff2");
      }
      @font-face {
        font-family: "Cascadia";
        src: url("https://excalidraw.com/Cascadia.woff2");
      }
    </style>
  </defs>
  <rect x="0" y="0" width="1072" height="380.9207792140544" fill="#ffffff"></rect><g stroke-linecap="round" transform="translate(39 46) rotate(0 314 25.5)"><path d="M-0.12 0.11 C133.69 0.54, 268.2 -0.87, 628.58 0.47 M0.23 0.17 C247.07 2.41, 494.19 2.57, 627.62 -0.17 M629.31 -1.72 C626.9 12.36, 629.75 22.19, 629.77 50.99 M628.86 0.8 C627.56 12.86, 628.08 27.5, 628.13 50.62 M628.63 50.4 C417.23 53.75, 207.35 53.9, 0.36 51.12 M627.84 51.21 C487.79 52.49, 347.27 53, 0.17 51.25 M-0.04 49.13 C-1.43 36.48, -0.76 18.6, 0.87 -1.23 M0.58 50.24 C-0.81 38.59, -0.35 27.86, 0.26 0.2" stroke="#000000" stroke-width="1" fill="none"></path></g><g stroke-linecap="round"><g transform="translate(111 46) rotate(0 0.0019814155996016325 25.744912407547304)"><path d="M-0.9 -1.11 C-0.95 7.67, 0.62 43.88, 0.91 52.6 M0.82 0.92 C0.51 9.35, 0.05 42.27, -0.09 50.79" stroke="#000000" stroke-width="1" fill="none"></path></g></g><g stroke-linecap="round"><g transform="translate(213 50) rotate(0 -0.28864182476422684 21.40901917540475)"><path d="M0.04 0.75 C0.06 7.82, 0.81 34.72, 0.83 41.47 M-1.4 0.09 C-1.53 7.41, 0.17 35.72, 0.31 42.72" stroke="#000000" stroke-width="1" fill="none"></path></g></g><g stroke-linecap="round"><g transform="translate(329 45) rotate(0 -0.0867740302020934 26.8590687654912)"><path d="M-0.94 -0.92 C-0.82 8.35, 0.42 45.41, 0.75 54.64 M0.77 1.21 C0.71 10.22, -0.25 44.32, -0.33 52.86" stroke="#000000" stroke-width="1" fill="none"></path></g></g><g stroke-linecap="round"><g transform="translate(453 49) rotate(0 3.010489878272608 23.536914098495572)"><path d="M1.12 0.47 C1.61 8.28, 2.81 38.14, 3.39 45.92 M0.25 -0.33 C1.09 7.77, 5.14 39.79, 5.77 47.41" stroke="#000000" stroke-width="1" fill="none"></path></g></g><g transform="translate(82 64) rotate(0 6.5 12.5)"><text x="0" y="18" font-family="Virgil, Segoe UI Emoji" font-size="20px" fill="#000000" text-anchor="start" style="white-space: pre;" direction="ltr">9</text></g><g transform="translate(143 63) rotate(0 7.5 12.5)"><text x="0" y="18" font-family="Virgil, Segoe UI Emoji" font-size="20px" fill="#000000" text-anchor="start" style="white-space: pre;" direction="ltr">0</text></g><g transform="translate(268 63) rotate(0 8 12.5)"><text x="0" y="18" font-family="Virgil, Segoe UI Emoji" font-size="20px" fill="#000000" text-anchor="start" style="white-space: pre;" direction="ltr">8</text></g><g stroke-linecap="round" transform="translate(44 171) rotate(0 235 32)"><path d="M0.22 0.75 C176.05 -2.34, 351.75 -1.34, 469.72 -0.1 M0.09 0.06 C143.98 1.31, 288.6 1.1, 470.17 0.3 M468.16 -0.69 C469.26 20.12, 470.51 36.68, 469.91 64.08 M469.05 0.57 C469.76 13.52, 469.76 26.81, 469.3 64.41 M470.6 64.07 C357.72 62.28, 244.45 61.6, -0.83 64.13 M470.13 64.14 C338.33 61.68, 206.3 62.25, 0.15 63.75 M-1.6 65.75 C0.8 45.81, 0.06 24.87, -1.17 -1.44 M-0.74 63.58 C-0.37 50.34, 0.68 36.69, -0.73 -0.5" stroke="#000000" stroke-width="1" fill="none"></path></g><g stroke-linecap="round"><g transform="translate(104 170) rotate(0 0.3297977186739445 23.190042335488783)"><path d="M-1.11 0.18 C-0.97 8.17, 1.43 39.46, 1.77 47.15 M0.51 -0.77 C0.39 6.98, 0.24 38.14, 0.7 45.63" stroke="#000000" stroke-width="1" fill="none"></path></g></g><g stroke-linecap="round"><g transform="translate(206 174) rotate(0 0.6391370593009924 29.716735521787882)"><path d="M1.05 0.2 C1.25 10.16, 1.04 49.08, 0.89 58.76 M0.14 -0.73 C0.3 9.49, 0.53 50.17, 0.41 60.17" stroke="#000000" stroke-width="1" fill="none"></path></g></g><g transform="translate(68 187) rotate(0 7.5 12.5)"><text x="0" y="18" font-family="Virgil, Segoe UI Emoji" font-size="20px" fill="#000000" text-anchor="start" style="white-space: pre;" direction="ltr">0</text></g><g transform="translate(139 192) rotate(0 8 12.5)"><text x="0" y="18" font-family="Virgil, Segoe UI Emoji" font-size="20px" fill="#000000" text-anchor="start" style="white-space: pre;" direction="ltr">8</text></g><g transform="translate(247 18) rotate(0 21 12.5)"><text x="0" y="18" font-family="Virgil, Segoe UI Emoji" font-size="20px" fill="#000000" text-anchor="start" style="white-space: pre;" direction="ltr">rear</text></g><g transform="translate(86 10) rotate(0 25.5 12.5)"><text x="0" y="18" font-family="Virgil, Segoe UI Emoji" font-size="20px" fill="#000000" text-anchor="start" style="white-space: pre;" direction="ltr">front</text></g><g transform="translate(160 134) rotate(0 21 12.5)"><text x="0" y="18" font-family="Virgil, Segoe UI Emoji" font-size="20px" fill="#000000" text-anchor="start" style="white-space: pre;" direction="ltr">rear</text></g><g transform="translate(67 134) rotate(0 25.5 12.5)"><text x="0" y="18" font-family="Virgil, Segoe UI Emoji" font-size="20px" fill="#000000" text-anchor="start" style="white-space: pre;" direction="ltr">front</text></g><g stroke-linecap="round" transform="translate(10 312) rotate(0 51 29)"><path d="M-1.63 0.43 C21.79 0, 45.8 0.45, 103.71 0.41 M0.56 -0.81 C32.38 0.33, 65.99 1.55, 102.42 0.2 M100.43 -1.51 C103.42 13.32, 100.64 28.82, 103.92 56.33 M101.97 0.41 C101.28 21.43, 100.89 44.81, 101.09 57.98 M101.5 57.64 C71.38 58.68, 45.23 59.61, 1.49 58.47 M102.77 57.68 C80.33 57.52, 57.86 56.49, -0.37 57.19 M-0.64 58.31 C-1.06 36.03, 1.12 11.02, -1.56 -0.89 M0.63 57.44 C-0.43 41.3, -1.15 23.38, 0.46 0.99" stroke="#000000" stroke-width="1" fill="none"></path></g><g stroke-linecap="round"><g transform="translate(54 312) rotate(0 -1.5560165945533697 29.09642863050101)"><path d="M-1.12 -0.73 C-1.79 9.09, -2.46 48.97, -3.12 58.92 M0.49 1.5 C-0.34 10.99, -3.07 48.01, -3.61 57.28" stroke="#000000" stroke-width="1" fill="none"></path></g></g><g stroke-linecap="round"><g transform="translate(184 312) rotate(0 -2.1498844586732275 26.15434094988734)"><path d="M0.05 1.03 C-0.4 9.38, -2.56 42.01, -3.27 50.51 M-1.38 0.52 C-1.96 9, -4.27 43.5, -4.35 51.79" stroke="#000000" stroke-width="1" fill="none"></path></g></g><g transform="translate(36 333) rotate(0 7.5 12.5)"><text x="0" y="18" font-family="Virgil, Segoe UI Emoji" font-size="20px" fill="#000000" text-anchor="start" style="white-space: pre;" direction="ltr">0</text></g><g transform="translate(15 328.5) rotate(0 46 12.5)"><text x="46" y="18" font-family="Virgil, Segoe UI Emoji" font-size="20px" fill="#000000" text-anchor="middle" style="white-space: pre;" direction="ltr">8</text></g><g transform="translate(775 46) rotate(0 52 12.5)"><text x="0" y="18" font-family="Virgil, Segoe UI Emoji" font-size="20px" fill="#000000" text-anchor="start" style="white-space: pre;" direction="ltr">push 9,0,8</text></g><g transform="translate(709 212) rotate(0 176.5 12.5)"><text x="0" y="18" font-family="Virgil, Segoe UI Emoji" font-size="20px" fill="#000000" text-anchor="start" style="white-space: pre;" direction="ltr">pop 9 from front by increment front</text></g><g transform="translate(569 325) rotate(0 33 12.5)"><text x="0" y="18" font-family="Virgil, Segoe UI Emoji" font-size="20px" fill="#000000" text-anchor="start" style="white-space: pre;" direction="ltr">push 6</text></g><g stroke-linecap="round"><g transform="translate(111 315) rotate(0 38.927143477625236 -3.045896166316311)"><path d="M0.87 0.11 C14.04 -0.71, 65.18 -3.63, 77.99 -4.4 M-0.14 -0.88 C12.97 -2.09, 64.21 -5.26, 77.04 -6.2" stroke="#000000" stroke-width="1" fill="none"></path></g></g><g stroke-linecap="round"><g transform="translate(117 369) rotate(0 35.561022210377274 -3.886882878872484)"><path d="M0.5 -1.06 C12.32 -2.47, 60.19 -7.58, 71.82 -8.77 M-0.69 1 C10.96 -0.25, 59.06 -6.31, 71.3 -7.64" stroke="#000000" stroke-width="1" fill="none"></path></g></g><g transform="translate(162 328) rotate(0 7 12.5)"><text x="0" y="18" font-family="Virgil, Segoe UI Emoji" font-size="20px" fill="#000000" text-anchor="start" style="white-space: pre;" direction="ltr">6</text></g></svg>